[Header]
FileType HTR
DataType HTRS
FileVersion 1
NumSegments 64
NumFrames 4
DataFrameRate 30
EulerRotationOrder ZYX
CalibrationUnits mm
RotationUnits Degrees
GlobalAxisofGravity Y
BoneLengthAxis Y
ScaleFactor 1.0
[SegmentNames&Hierarchy]
Hips	GLOBAL
Spine	Hips
Spine1	Spine
Spine2	Spine1
Neck	Spine2
Head	Neck
LeftEye	Head
RightEye	Head
LeftShoulder	Spine2
LeftArm	LeftShoulder
LeftForeArm	LeftArm
LeftHand	LeftForeArm
LeftHandThumb1	LeftHand
LeftHandThumb2	LeftHandThumb1
LeftHandThumb3	LeftHandThumb2
LeftHandThumb4	LeftHandThumb3
LeftHandIndex1	LeftHand
LeftHandIndex2	LeftHandIndex1
LeftHandIndex3	LeftHandIndex2
LeftHandIndex4	LeftHandIndex3
LeftHandMiddle1	LeftHand
LeftHandMiddle2	LeftHandMiddle1
LeftHandMiddle3	LeftHandMiddle2
LeftHandMiddle4	LeftHandMiddle3
LeftHandRing1	LeftHand
LeftHandRing2	LeftHandRing1
LeftHandRing3	LeftHandRing2
LeftHandRing4	LeftHandRing3
LeftHandPinky1	LeftHand
LeftHandPinky2	LeftHandPinky1
LeftHandPinky3	LeftHandPinky2
LeftHandPinky4	LeftHandPinky3
RightShoulder	Spine2
RightArm	RightShoulder
RightForeArm	RightArm
RightHand	RightForeArm
RightHandPinky1	RightHand
RightHandPinky2	RightHandPinky1
RightHandPinky3	RightHandPinky2
RightHandPinky4	RightHandPinky3
RightHandRing1	RightHand
RightHandRing2	RightHandRing1
RightHandRing3	RightHandRing2
RightHandRing4	RightHandRing3
RightHandMiddle1	RightHand
RightHandMiddle2	RightHandMiddle1
RightHandMiddle3	RightHandMiddle2
RightHandMiddle4	RightHandMiddle3
RightHandIndex1	RightHand
RightHandIndex2	RightHandIndex1
RightHandIndex3	RightHandIndex2
RightHandIndex4	RightHandIndex3
RightHandThumb1	RightHand
RightHandThumb2	RightHandThumb1
RightHandThumb3	RightHandThumb2
RightHandThumb4	RightHandThumb3
LeftUpLeg	Hips
LeftLeg	LeftUpLeg
LeftFoot	LeftLeg
LeftToeBase	LeftFoot
RightUpLeg	Hips
RightLeg	RightUpLeg
RightFoot	RightLeg
RightToeBase	RightFoot
[BasePosition]
Hips	0	0	0	0	0	0	1
Spine	0	0	0	0	0	0	1
Spine1	0	0	0	0	0	0	1
Spine2	0	0	0	0	0	0	1
Neck	0	0	0	0	0	0	1
Head	0	0	0	0	0	0	1
LeftEye	0	0	0	0	0	0	1
RightEye	0	0	0	0	0	0	1
LeftShoulder	0	0	0	0	0	0	1
LeftArm	0	0	0	0	0	0	1
LeftForeArm	0	0	0	0	0	0	1
LeftHand	0	0	0	0	0	0	1
LeftHandThumb1	0	0	0	0	0	0	1
LeftHandThumb2	0	0	0	0	0	0	1
LeftHandThumb3	0	0	0	0	0	0	1
LeftHandThumb4	0	0	0	0	0	0	1
LeftHandIndex1	0	0	0	0	0	0	1
LeftHandIndex2	0	0	0	0	0	0	1
LeftHandIndex3	0	0	0	0	0	0	1
LeftHandIndex4	0	0	0	0	0	0	1
LeftHandMiddle1	0	0	0	0	0	0	1
LeftHandMiddle2	0	0	0	0	0	0	1
LeftHandMiddle3	0	0	0	0	0	0	1
LeftHandMiddle4	0	0	0	0	0	0	1
LeftHandRing1	0	0	0	0	0	0	1
LeftHandRing2	0	0	0	0	0	0	1
LeftHandRing3	0	0	0	0	0	0	1
LeftHandRing4	0	0	0	0	0	0	1
LeftHandPinky1	0	0	0	0	0	0	1
LeftHandPinky2	0	0	0	0	0	0	1
LeftHandPinky3	0	0	0	0	0	0	1
LeftHandPinky4	0	0	0	0	0	0	1
RightShoulder	0	0	0	0	0	0	1
RightArm	0	0	0	0	0	0	1
RightForeArm	0	0	0	0	0	0	1
RightHand	0	0	0	0	0	0	1
RightHandPinky1	0	0	0	0	0	0	1
RightHandPinky2	0	0	0	0	0	0	1
RightHandPinky3	0	0	0	0	0	0	1
RightHandPinky4	0	0	0	0	0	0	1
RightHandRing1	0	0	0	0	0	0	1
RightHandRing2	0	0	0	0	0	0	1
RightHandRing3	0	0	0	0	0	0	1
RightHandRing4	0	0	0	0	0	0	1
RightHandMiddle1	0	0	0	0	0	0	1
RightHandMiddle2	0	0	0	0	0	0	1
RightHandMiddle3	0	0	0	0	0	0	1
RightHandMiddle4	0	0	0	0	0	0	1
RightHandIndex1	0	0	0	0	0	0	1
RightHandIndex2	0	0	0	0	0	0	1
RightHandIndex3	0	0	0	0	0	0	1
RightHandIndex4	0	0	0	0	0	0	1
RightHandThumb1	0	0	0	0	0	0	1
RightHandThumb2	0	0	0	0	0	0	1
RightHandThumb3	0	0	0	0	0	0	1
RightHandThumb4	0	0	0	0	0	0	1
LeftUpLeg	0	0	0	0	0	0	1
LeftLeg	0	0	0	0	0	0	1
LeftFoot	0	0	0	0	0	0	1
LeftToeBase	0	0	0	0	0	0	1
RightUpLeg	0	0	0	0	0	0	1
RightLeg	0	0	0	0	0	0	1
RightFoot	0	0	0	0	0	0	1
RightToeBase	0	0	0	0	0	0	1
[Hips]
21	-10.24276543	1013.100891	-1.88488245	7.261837482	-2.648141384	-9.425138474	1.0
22	-10.90415001	1012.679688	-0.8415436745	7.180358887	-2.46971488	-9.535705566	1.0
23	-11.31138611	1011.959167	0.2334189415	7.010306358	-2.347862244	-9.539842606	1.0
24	-11.59807205	1011.290833	1.180593967	6.782021999	-2.234542131	-9.478289604	1.0
[Spine]
21	0	101.8159943	1.315000057	5.26618576	1.645115614	1.921367764	1.0
22	0	101.8159943	1.315000057	5.202356339	1.648973107	1.893716574	1.0
23	0	101.8159943	1.315000057	5.170062065	1.666792631	1.878582358	1.0
24	0	101.8159943	1.315000057	5.153083801	1.671267271	1.859835386	1.0
[Spine1]
21	0	100.8349991	-10.00800037	3.143134594	0.5698173642	0.2558607757	1.0
22	0	100.8349991	-10.00800037	3.0803442	0.5750618577	0.2084160596	1.0
23	0	100.8349991	-10.00800037	3.042370558	0.6043472886	0.1814518124	1.0
24	0	100.8349991	-10.00800037	3.024028778	0.6173802018	0.1682375222	1.0
[Spine2]
21	0	91	-13.73399925	3.123572826	0.6180503368	0.2699588537	1.0
22	0	91	-13.73399925	3.060626984	0.6225095391	0.2222867608	1.0
23	0	91	-13.73399925	3.022349834	0.6503922939	0.1952791512	1.0
24	0	91	-13.73399925	3.003924847	0.6634489298	0.1819395572	1.0
[Neck]
21	0	166.7169952	-25.16200066	6.721196175	0.936994195	-4.178300381	1.0
22	0	166.7169952	-25.16200066	6.639879704	0.9748046994	-4.202194214	1.0
23	0	166.7169952	-25.16200066	6.454548836	1.043115377	-4.251233101	1.0
24	0	166.7169952	-25.16200066	6.252782345	1.087355971	-4.215706825	1.0
[Head]
21	0	96.17900085	16.84999847	-20.72748375	6.298016548	-0.4726957679	1.0
22	0	96.17900085	16.84999847	-20.87581253	6.381445408	-0.4058659077	1.0
23	0	96.17900085	16.84999847	-21.58511162	6.595518589	-0.4535723329	1.0
24	0	96.17900085	16.84999847	-22.42836571	6.715081215	-0.4587482214	1.0
[LeftEye]
21	30.6760006	64.09500122	92.83599854	0	0	0	1.0
22	30.6760006	64.09500122	92.83599854	0	0	0	1.0
23	30.6760006	64.09500122	92.83599854	0	0	0	1.0
24	30.6760006	64.09500122	92.83599854	0	0	0	1.0
[RightEye]
21	-30.6760006	64.09500122	92.83499908	0	0	0	1.0
22	-30.6760006	64.09500122	92.83499908	0	0	0	1.0
23	-30.6760006	64.09500122	92.83499908	0	0	0	1.0
24	-30.6760006	64.09500122	92.83499908	0	0	0	1.0
[LeftShoulder]
21	45.70400238	109.4599991	-26.28000069	5.43427372	-16.74685478	-16.45307541	1.0
22	45.70400238	109.4599991	-26.28000069	5.344134331	-16.54239082	-16.25408363	1.0
23	45.70400238	109.4599991	-26.28000069	5.284837246	-16.43191147	-16.08053398	1.0
24	45.70400238	109.4599991	-26.28000069	5.309565067	-16.52235222	-16.07831383	1.0
[LeftArm]
21	105.923996	-5.24600029	-22.32099915	15.35669899	-12.42818165	-57.16312027	1.0
22	105.923996	-5.24600029	-22.32099915	15.79591465	-12.36299515	-57.69987869	1.0
23	105.923996	-5.24600029	-22.32099915	16.63822937	-12.56102467	-58.38876343	1.0
24	105.923996	-5.24600029	-22.32099915	17.50558662	-12.72799301	-58.89588165	1.0
[LeftForeArm]
21	278.414978	-0.0009999999311	0	-5.20649337e-06	-7.931600571	-0.0002086270397	1.0
22	278.414978	-0.0009999999311	0	-3.168548801e-06	-8.265408516	-0.0002181701275	1.0
23	278.414978	-0.0009999999311	0	-9.382407598e-07	-7.880271912	-0.0002074792283	1.0
24	278.414978	-0.0009999999311	0	3.821558494e-06	-7.113053799	-0.0002274232247	1.0
[LeftHand]
21	283.2879944	0	0	-39.24405289	-9.316667557	1.62812376	1.0
22	283.2879944	0	0	-38.05148315	-7.050273418	2.284740448	1.0
23	283.2879944	0	0	-36.46119308	-4.51688242	3.038716316	1.0
24	283.2879944	0	0	-35.57925797	-2.362192869	3.758826494	1.0
[LeftHandThumb1]
21	24.6609993	-15.75	26.8239994	-8.395638466	-0.1920884103	8.521247864	1.0
22	24.6609993	-15.75	26.8239994	-7.605893135	-0.08094125241	8.032859802	1.0
23	24.6609993	-15.75	26.8239994	-7.403726101	-0.1169833541	7.845245838	1.0
24	24.6609993	-15.75	26.8239994	-7.250685692	-0.1129063144	7.717635155	1.0
[LeftHandThumb2]
21	32.29800034	-18.64699936	18.64699936	19.64152718	21.91592407	16.85042	1.0
22	32.29800034	-18.64699936	18.64699936	19.65698624	21.55737877	17.16598701	1.0
23	32.29800034	-18.64699936	18.64699936	19.65655518	21.37421799	17.16175842	1.0
24	32.29800034	-18.64699936	18.64699936	19.65712357	21.18481255	17.15546227	1.0
[LeftHandThumb3]
21	26.52600098	-15.31499958	15.31499958	-11.55828762	2.864485502	9.01051712	1.0
22	26.52600098	-15.31499958	15.31499958	-11.66741848	3.022887468	9.011131287	1.0
23	26.52600098	-15.31499958	15.31499958	-11.68435955	3.035481215	9.033754349	1.0
24	26.52600098	-15.31499958	15.31499958	-11.71666527	3.065369129	9.081601143	1.0
[LeftHandThumb4]
21	19.54599953	-11.28499985	11.28499985	0	0	0	1.0
22	19.54599953	-11.28499985	11.28499985	0	0	0	1.0
23	19.54599953	-11.28499985	11.28499985	0	0	0	1.0
24	19.54599953	-11.28499985	11.28499985	0	0	0	1.0
[LeftHandIndex1]
21	91.09299469	-5.170999527	22.60099792	-0.02805610746	-0.8385576606	-10.24116516	1.0
22	91.09299469	-5.170999527	22.60099792	-0.03867973387	-0.8094262481	-10.45396233	1.0
23	91.09299469	-5.170999527	22.60099792	-0.05636110902	-0.7818739414	-10.76878166	1.0
24	91.09299469	-5.170999527	22.60099792	-0.08070980012	-0.7299131155	-11.20726776	1.0
[LeftHandIndex2]
21	36.76399994	0	0	-0.2581591904	1.717644453	-17.09369469	1.0
22	36.76399994	0	0	-0.2577088475	1.716181517	-17.07866096	1.0
23	36.76399994	0	0	-0.2571882606	1.714490771	-17.06134415	1.0
24	36.76399994	0	0	-0.2562623024	1.711468816	-17.03034782	1.0
[LeftHandIndex3]
21	28.83100128	0	0	-0.05342727154	0.7884934545	-7.752851486	1.0
22	28.83100128	0	0	-0.05322064087	0.7869722247	-7.737794399	1.0
23	28.83100128	0	0	-0.05298215896	0.7852139473	-7.72044611	1.0
24	28.83100128	0	0	-0.05256680399	0.7821246982	-7.689842701	1.0
[LeftHandIndex4]
21	23.92700005	0	0	0	0	0	1.0
22	23.92700005	0	0	0	0	0	1.0
23	23.92700005	0	0	0	0	0	1.0
24	23.92700005	0	0	0	0	0	1.0
[LeftHandMiddle1]
21	95.33399963	0	0	-0.9680681229	2.77429986	-18.22071648	1.0
22	95.33399963	0	0	-0.9656063914	2.820919514	-18.18490028	1.0
23	95.33399963	0	0	-0.9796742797	2.856678963	-18.38153267	1.0
24	95.33399963	0	0	-1.007944345	2.904886246	-18.77487564	1.0
[LeftHandMiddle2]
21	36.98199844	0	0	-0.2381599098	1.651242018	-16.41339874	1.0
22	36.98199844	0	0	-0.2384505421	1.6522156	-16.42334366	1.0
23	36.98199844	0	0	-0.2393966466	1.655433416	-16.45625877	1.0
24	36.98199844	0	0	-0.2402988523	1.658484697	-16.48749161	1.0
[LeftHandMiddle3]
21	29.50900078	0	0	-0.268068552	1.749526858	-17.42123222	1.0
22	29.50900078	0	0	-0.2683596313	1.750452638	-17.43078613	1.0
23	29.50900078	0	0	-0.2693602145	1.753641129	-17.46354485	1.0
24	29.50900078	0	0	-0.2703170478	1.756673694	-17.49476433	1.0
[LeftHandMiddle4]
21	28.3390007	0	0	0	0	0	1.0
22	28.3390007	0	0	0	0	0	1.0
23	28.3390007	0	0	0	0	0	1.0
24	28.3390007	0	0	0	0	0	1.0
[LeftHandRing1]
21	91.04499817	-0.4390000105	-18.65100098	-1.439012289	3.611858368	-24.43436432	1.0
22	91.04499817	-0.4390000105	-18.65100098	-1.457227588	3.624162436	-24.6617527	1.0
23	91.04499817	-0.4390000105	-18.65100098	-1.474701881	3.636439085	-24.87910271	1.0
24	91.04499817	-0.4390000105	-18.65100098	-1.491321445	3.649793625	-25.08501625	1.0
[LeftHandRing2]
21	31.54000092	0	0	-0.5622662902	2.500420332	-25.34277725	1.0
22	31.54000092	0	0	-0.5688798428	2.514318228	-25.49391174	1.0
23	31.54000092	0	0	-0.574642539	2.526355982	-25.62495422	1.0
24	31.54000092	0	0	-0.5795349479	2.536520243	-25.73570633	1.0
[LeftHandRing3]
21	29.37700081	0	0	-0.4373479486	2.217778683	-22.30874443	1.0
22	29.37700081	0	0	-0.4432447851	2.232084751	-22.46063042	1.0
23	29.37700081	0	0	-0.4483886361	2.244478703	-22.59234238	1.0
24	29.37700081	0	0	-0.4527579844	2.25494051	-22.70363045	1.0
[LeftHandRing4]
21	26.47500038	0	0	0	0	0	1.0
22	26.47500038	0	0	0	0	0	1.0
23	26.47500038	0	0	0	0	0	1.0
24	26.47500038	0	0	0	0	0	1.0
[LeftHandPinky1]
21	80.77799988	-4.887000084	-38.06099701	-4.175472736	4.276520252	-37.32085037	1.0
22	80.77799988	-4.887000084	-38.06099701	-4.353022575	4.151129246	-37.77348709	1.0
23	80.77799988	-4.887000084	-38.06099701	-4.550295353	4.019440651	-38.32398224	1.0
24	80.77799988	-4.887000084	-38.06099701	-4.7084589	3.931850672	-38.8800621	1.0
[LeftHandPinky2]
21	36	0	0	-0.442849189	2.231124163	-22.45041466	1.0
22	36	0	0	-0.4515390098	2.252022505	-22.67259216	1.0
23	36	0	0	-0.4619166851	2.276690722	-22.93531418	1.0
24	36	0	0	-0.4688471258	2.292984724	-23.10911369	1.0
[LeftHandPinky3]
21	21.14200211	0	0	-0.4084553421	2.146065474	-21.54989433	1.0
22	21.14200211	0	0	-0.4168183208	2.167098522	-21.77204704	1.0
23	21.14200211	0	0	-0.4268085063	2.191927433	-22.03472137	1.0
24	21.14200211	0	0	-0.4334774911	2.208328247	-22.20850182	1.0
[LeftHandPinky4]
21	19.75699997	0	0	0	0	0	1.0
22	19.75699997	0	0	0	0	0	1.0
23	19.75699997	0	0	0	0	0	1.0
24	19.75699997	0	0	0	0	0	1.0
[RightShoulder]
21	-45.70000076	109.4620056	-26.28000069	5.782861233	17.75889015	13.36858368	1.0
22	-45.70000076	109.4620056	-26.28000069	5.863004208	18.01760674	13.48083591	1.0
23	-45.70000076	109.4620056	-26.28000069	5.947444916	18.31248283	13.55228615	1.0
24	-45.70000076	109.4620056	-26.28000069	5.973390102	18.42496872	13.53320789	1.0
[RightArm]
21	-105.9280014	-5.248000145	-22.32099915	33.31899261	15.41821194	64.9486618	1.0
22	-105.9280014	-5.248000145	-22.32099915	34.08885574	14.68969536	64.6061554	1.0
23	-105.9280014	-5.248000145	-22.32099915	34.15075302	13.91343403	64.20409393	1.0
24	-105.9280014	-5.248000145	-22.32099915	33.246315	13.19057655	64.08676147	1.0
[RightForeArm]
21	-278.414978	0	0	5.468839845e-06	18.2653904	7.866675332e-06	1.0
22	-278.414978	0	0	1.029590931e-05	18.05390358	1.34918273e-05	1.0
23	-278.414978	0	0	-5.576965123e-06	17.43966866	5.103410331e-06	1.0
24	-278.414978	0	0	3.678698249e-06	16.39224815	-6.326135008e-06	1.0
[RightHand]
21	-283.2879944	0	0.0009999999311	-24.48913956	9.396172523	-0.930303812	1.0
22	-283.2879944	0	0.0009999999311	-23.25528336	8.978728294	-2.701365232	1.0
23	-283.2879944	0	0.0009999999311	-24.25061417	9.122756004	-3.834339619	1.0
24	-283.2879944	0	0.0009999999311	-26.36117363	9.343626976	-3.606035233	1.0
[RightHandPinky1]
21	-80.76699829	-4.885000229	-38.06000137	-5.845676899	-2.502520323	73.18997955	1.0
22	-80.76699829	-4.885000229	-38.06000137	-5.804246902	-2.540730476	72.76685333	1.0
23	-80.76699829	-4.885000229	-38.06000137	-5.442596436	-2.913796425	69.15338135	1.0
24	-80.76699829	-4.885000229	-38.06000137	-4.885026932	-3.475161314	63.64405823	1.0
[RightHandPinky2]
21	-36	0	0.0009999999311	-0.4967936873	-2.088442564	26.77845573	1.0
22	-36	0	0.0009999999311	-0.4811044633	-2.057047367	26.34450531	1.0
23	-36	0	0.0009999999311	-0.4473389387	-1.987393498	25.38767242	1.0
24	-36	0	0.0009999999311	-0.4018260539	-1.888469815	24.04189682	1.0
[RightHandPinky3]
21	-21.14200211	0	0	-0.4528231919	-1.998915434	25.52569962	1.0
22	-21.14200211	0	0	-0.4380401969	-1.967674494	25.09863281	1.0
23	-21.14200211	0	0	-0.4073813558	-1.900889277	24.19023323	1.0
24	-21.14200211	0	0	-0.3661754727	-1.806409955	22.91651535	1.0
[RightHandPinky4]
21	-19.75699997	0	0	0	0	0	1.0
22	-19.75699997	0	0	0	0	0	1.0
23	-19.75699997	0	0	0	0	0	1.0
24	-19.75699997	0	0	0	0	0	1.0
[RightHandRing1]
21	-91.03599548	-0.4390000105	-18.65100098	-4.127449036	-2.932528019	58.50347519	1.0
22	-91.03599548	-0.4390000105	-18.65100098	-4.102838039	-2.991853476	58.23061752	1.0
23	-91.03599548	-0.4390000105	-18.65100098	-3.907790184	-2.904313326	56.06667328	1.0
24	-91.03599548	-0.4390000105	-18.65100098	-3.58966279	-2.803242445	52.51094055	1.0
[RightHandRing2]
21	-31.54000092	0	0	-2.021852255	-3.827100515	55.68225479	1.0
22	-31.54000092	0	0	-1.987541795	-3.80351162	55.16662216	1.0
23	-31.54000092	0	0	-1.827979326	-3.687596798	52.72431183	1.0
24	-31.54000092	0	0	-1.570719123	-3.477198839	48.6089592	1.0
[RightHandRing3]
21	-29.37700081	0	0	-1.820150018	-3.681631804	52.6026535	1.0
22	-29.37700081	0	0	-1.787242532	-3.65628171	52.08819199	1.0
23	-29.37700081	0	0	-1.634088278	-3.531931162	49.64558029	1.0
24	-29.37700081	0	0	-1.388524413	-3.307994843	45.5308609	1.0
[RightHandRing4]
21	-26.47500038	0	0	0	0	0	1.0
22	-26.47500038	0	0	0	0	0	1.0
23	-26.47500038	0	0	0	0	0	1.0
24	-26.47500038	0	0	0	0	0	1.0
[RightHandMiddle1]
21	-95.32500458	0	0	-2.800898075	-4.841431141	43.44540405	1.0
22	-95.32500458	0	0	-2.80728364	-4.7452631	43.52047729	1.0
23	-95.32500458	0	0	-2.666145563	-4.908282757	41.85054398	1.0
24	-95.32500458	0	0	-2.419807196	-5.156534672	38.88742447	1.0
[RightHandMiddle2]
21	-36.98199844	0	0	-0.2930564582	-1.622726798	20.47328758	1.0
22	-36.98199844	0	0	-0.2924994826	-1.621211052	20.4533596	1.0
23	-36.98199844	0	0	-0.2849760056	-1.6008991	20.185812	1.0
24	-36.98199844	0	0	-0.2747654915	-1.572871566	19.8172226	1.0
[RightHandMiddle3]
21	-29.50900078	0	0	-0.3223591149	-1.701113462	21.48399734	1.0
22	-29.50900078	0	0	-0.3217536211	-1.699587345	21.46365547	1.0
23	-29.50900078	0	0	-0.3139067888	-1.679488301	21.19704628	1.0
24	-29.50900078	0	0	-0.3032617271	-1.651787519	20.83050919	1.0
[RightHandMiddle4]
21	-28.3390007	0	0.0009999999311	0	0	0	1.0
22	-28.3390007	0	0.0009999999311	0	0	0	1.0
23	-28.3390007	0	0.0009999999311	0	0	0	1.0
24	-28.3390007	0	0.0009999999311	0	0	0	1.0
[RightHandIndex1]
21	-91.08300018	-5.167999744	22.60099792	-0.1013448834	-4.416675091	25.5252285	1.0
22	-91.08300018	-5.167999744	22.60099792	-0.1397522241	-4.344388008	25.91004753	1.0
23	-91.08300018	-5.167999744	22.60099792	-0.04989771917	-4.288425922	24.68773842	1.0
24	-91.08300018	-5.167999744	22.60099792	0.1038088277	-4.219919205	22.4978447	1.0
[RightHandIndex2]
21	-36.76399994	0	0	-0.174011752	-1.258768082	15.74119377	1.0
22	-36.76399994	0	0	-0.176500842	-1.26756072	15.85407734	1.0
23	-36.76399994	0	0	-0.1761987656	-1.26650691	15.84054089	1.0
24	-36.76399994	0	0	-0.1758778244	-1.265302658	15.82530689	1.0
[RightHandIndex3]
21	-28.83100128	0	0	-0.02881285734	-0.5162835121	6.38779211	1.0
22	-28.83100128	0	0	-0.02983657457	-0.5253592134	6.500644207	1.0
23	-28.83100128	0	0	-0.02971613035	-0.5242836475	6.48709631	1.0
24	-28.83100128	0	0	-0.02957432158	-0.5230576992	6.471850395	1.0
[RightHandIndex4]
21	-23.92700005	0	0	0	0	0	1.0
22	-23.92700005	0	0	0	0	0	1.0
23	-23.92700005	0	0	0	0	0	1.0
24	-23.92700005	0	0	0	0	0	1.0
[RightHandThumb1]
21	-24.64799881	-15.72700024	26.82600021	-3.47071147	4.641906261	2.620576382	1.0
22	-24.64799881	-15.72700024	26.82600021	-3.51691246	4.833810329	2.462995529	1.0
23	-24.64799881	-15.72700024	26.82600021	-3.434811115	4.611589432	2.154812574	1.0
24	-24.64799881	-15.72700024	26.82600021	-3.247323751	3.993555784	1.961953282	1.0
[RightHandThumb2]
21	-32.29800034	-18.64699936	18.64699936	25.51383781	-28.6416626	-26.42169762	1.0
22	-32.29800034	-18.64699936	18.64699936	25.6524601	-28.93445396	-26.53445435	1.0
23	-32.29800034	-18.64699936	18.64699936	25.41159058	-28.42331886	-26.33872795	1.0
24	-32.29800034	-18.64699936	18.64699936	25.06474686	-27.66990852	-26.05098152	1.0
[RightHandThumb3]
21	-26.52600098	-15.31399918	15.31399918	-15.147542	-1.846533775	-11.5786314	1.0
22	-26.52600098	-15.31399918	15.31399918	-15.04531002	-1.669685841	-11.65472317	1.0
23	-26.52600098	-15.31399918	15.31399918	-15.21795464	-2.066099167	-11.53173828	1.0
24	-26.52600098	-15.31399918	15.31399918	-15.45171833	-2.733744144	-11.36984158	1.0
[RightHandThumb4]
21	-19.54599953	-11.28499985	11.28499985	0	0	0	1.0
22	-19.54599953	-11.28499985	11.28499985	0	0	0	1.0
23	-19.54599953	-11.28499985	11.28499985	0	0	0	1.0
24	-19.54599953	-11.28499985	11.28499985	0	0	0	1.0
[LeftUpLeg]
21	82.07800293	-67.51699829	-15.99599934	-29.37100792	18.23317528	11.13418293	1.0
22	82.07800293	-67.51699829	-15.99599934	-29.31748772	18.28279495	11.29232788	1.0
23	82.07800293	-67.51699829	-15.99599934	-29.23161125	18.27185822	11.35299873	1.0
24	82.07800293	-67.51699829	-15.99599934	-29.12555313	18.2196331	11.35473442	1.0
[LeftLeg]
21	0	-443.7049866	2.845999956	26.66573524	-2.167935371	3.217967272	1.0
22	0	-443.7049866	2.845999956	26.78196144	-2.375520706	3.130754232	1.0
23	0	-443.7049866	2.845999956	27.05030823	-2.532799006	3.096246719	1.0
24	0	-443.7049866	2.845999956	27.36040306	-2.670772791	3.077915668	1.0
[LeftFoot]
21	0	-444.2789917	-29.8219986	-0.7417266369	0.5127478242	-7.069877148	1.0
22	0	-444.2789917	-29.8219986	-1.022114158	0.4914396107	-7.179388046	1.0
23	0	-444.2789917	-29.8219986	-1.379175425	0.4589770734	-7.270148277	1.0
24	0	-444.2789917	-29.8219986	-1.628288746	0.4314672053	-7.347809792	1.0
[LeftToeBase]
21	0	-87.28699493	107.1060028	-4.058229923	4.758190997e-08	2.372212066e-06	1.0
22	0	-87.28699493	107.1060028	-4.061970234	4.120437552e-06	9.279999631e-07	1.0
23	0	-87.28699493	107.1060028	-4.071095467	-2.440739763e-06	6.261526551e-07	1.0
24	0	-87.28699493	107.1060028	-4.087069035	8.37681182e-06	-1.101296675e-06	1.0
[RightUpLeg]
21	-82.07800293	-67.51699829	-15.99599934	-16.93345642	-6.252752304	12.82269573	1.0
22	-82.07800293	-67.51699829	-15.99599934	-16.90492249	-6.285475731	12.96654034	1.0
23	-82.07800293	-67.51699829	-15.99599934	-16.91987228	-6.279763222	13.04892349	1.0
24	-82.07800293	-67.51699829	-15.99599934	-16.89711189	-6.279243946	13.08006001	1.0
[RightLeg]
21	0	-443.7049866	2.861999989	17.53244591	-8.541584969	-6.584990501	1.0
22	0	-443.7049866	2.861999989	17.76098442	-8.508038521	-6.636640072	1.0
23	0	-443.7049866	2.861999989	18.2540741	-8.412778854	-6.839825153	1.0
24	0	-443.7049866	2.861999989	18.76396179	-8.302069664	-7.087064743	1.0
[RightFoot]
21	0	-444.2770081	-29.83799934	-6.180434227	-6.50378418	3.030849457	1.0
22	0	-444.2770081	-29.83799934	-6.293080807	-6.615422249	3.203705549	1.0
23	0	-444.2770081	-29.83799934	-6.650538445	-6.791125298	3.287212133	1.0
24	0	-444.2770081	-29.83799934	-7.046905518	-6.987756729	3.322230577	1.0
[RightToeBase]
21	0	-87.28699493	107.1060028	-6.857684135	9.209607924e-06	9.220790531e-08	1.0
22	0	-87.28699493	107.1060028	-6.904752731	-2.955526043e-06	1.998359721e-06	1.0
23	0	-87.28699493	107.1060028	-6.9421134	1.379850528e-05	-4.239550719e-07	1.0
24	0	-87.28699493	107.1060028	-6.964214802	-3.108461897e-06	1.583885364e-06	1.0
[EndOfFile]
